<svg xmlns="http://www.w3.org/2000/svg" width="1200" height="680" viewBox="0 0 1200 680">
<style>text{font-family:Arial,Helvetica,sans-serif}.title{font-size:30px;font-weight:700}.label{font-size:20px;font-weight:700}.desc{font-size:15px}</style>
<text class="title" x="600.0" y="42" text-anchor="middle">Data flow</text>
<rect x="170" y="80" width="860" height="82" rx="10" fill="#e8f1ff" stroke="#333" stroke-width="1.2"/>
<text class="label" x="194" y="111">Raw / released sources</text>
<text class="desc" x="194" y="138">BVH, 36-col CSV, MCAP/rosbag-derived released evidence.</text>
<line x1="600.0" y1="162" x2="600.0" y2="184" stroke="#444" stroke-width="2"/>
<polygon points="593.0,183 607.0,183 600.0,194" fill="#444"/>
<rect x="170" y="190" width="860" height="82" rx="10" fill="#eef8ec" stroke="#333" stroke-width="1.2"/>
<text class="label" x="194" y="221">Train-ready references</text>
<text class="desc" x="194" y="248">G1 generalized-coordinate CSV/NPZ with joint/body tensors.</text>
<line x1="600.0" y1="272" x2="600.0" y2="294" stroke="#444" stroke-width="2"/>
<polygon points="593.0,293 607.0,293 600.0,304" fill="#444"/>
<rect x="170" y="300" width="860" height="82" rx="10" fill="#fff2dc" stroke="#333" stroke-width="1.2"/>
<text class="label" x="194" y="331">Stage1 bundle</text>
<text class="desc" x="194" y="358">49 motions / 2.49 h local public+available bundle.</text>
<line x1="600.0" y1="382" x2="600.0" y2="404" stroke="#444" stroke-width="2"/>
<polygon points="593.0,403 607.0,403 600.0,414" fill="#444"/>
<rect x="170" y="410" width="860" height="82" rx="10" fill="#f5ebff" stroke="#333" stroke-width="1.2"/>
<text class="label" x="194" y="441">Rollout shards</text>
<text class="desc" x="194" y="468">612,352 local weak-teacher state-action samples.</text>
<line x1="600.0" y1="492" x2="600.0" y2="514" stroke="#444" stroke-width="2"/>
<polygon points="593.0,513 607.0,513 600.0,524" fill="#444"/>
<rect x="170" y="520" width="860" height="82" rx="10" fill="#ffecec" stroke="#333" stroke-width="1.2"/>
<text class="label" x="194" y="551">State-latent windows</text>
<text class="desc" x="194" y="578">571,392 windows with 160-D obs + 32-D latent.</text>
</svg>
